<?xml version="1.0" encoding="utf-8"?><svg xmlns="http://www.w3.org/2000/svg" xmlns:xlink="http://www.w3.org/1999/xlink"><symbol viewBox="0 0 24 24" id="add" xmlns="http://www.w3.org/2000/svg"><path fill-rule="evenodd" clip-rule="evenodd" d="M12 3C7.02944 3 3 7.02944 3 12C3 16.9706 7.02944 21 12 21C16.9706 21 21 16.9706 21 12C21 7.02944 16.9706 3 12 3ZM1 12C1 5.92487 5.92487 1 12 1C18.0751 1 23 5.92487 23 12C23 18.0751 18.0751 23 12 23C5.92487 23 1 18.0751 1 12ZM12 7C12.5523 7 13 7.44772 13 8V11H16C16.5523 11 17 11.4477 17 12C17 12.5523 16.5523 13 16 13H13V16C13 16.5523 12.5523 17 12 17C11.4477 17 11 16.5523 11 16V13H8C7.44772 13 7 12.5523 7 12C7 11.4477 7.44772 11 8 11H11V8C11 7.44772 11.4477 7 12 7Z"/></symbol><symbol viewBox="0 0 24 24" id="calendar" xmlns="http://www.w3.org/2000/svg"><path fill-rule="evenodd" clip-rule="evenodd" d="M8.4 2C8.89706 2 9.3 2.40701 9.3 2.90909V3.81818H14.7V2.90909C14.7 2.40701 15.1029 2 15.6 2C16.0971 2 16.5 2.40701 16.5 2.90909V3.81966C16.9279 3.82263 17.3019 3.83156 17.6266 3.85836C18.1325 3.90011 18.5976 3.98971 19.0344 4.21452C19.7117 4.56315 20.2625 5.11945 20.6076 5.80367C20.8302 6.24488 20.9189 6.71462 20.9602 7.22561C21 7.7176 21 8.32156 21 9.05334V16.7648C21 17.4966 21 18.1006 20.9602 18.5926C20.9189 19.1036 20.8302 19.5733 20.6076 20.0145C20.2625 20.6987 19.7117 21.255 19.0344 21.6037C18.5976 21.8285 18.1325 21.9181 17.6266 21.9598C17.1396 22 16.5417 22 15.8172 22H8.18281C7.45834 22 6.86043 22 6.37336 21.9598C5.86747 21.9181 5.40244 21.8285 4.96563 21.6037C4.28825 21.255 3.73752 20.6987 3.39238 20.0145C3.16982 19.5733 3.08111 19.1036 3.03978 18.5926C2.99998 18.1006 2.99999 17.4966 3 16.7648V9.05336C2.99999 8.32157 2.99998 7.71761 3.03978 7.22561C3.08111 6.71462 3.16982 6.24489 3.39238 5.80367C3.73752 5.11945 4.28825 4.56315 4.96563 4.21452C5.40244 3.98971 5.86747 3.90011 6.37336 3.85836C6.69808 3.83156 7.07208 3.82263 7.5 3.81966V2.90909C7.5 2.40701 7.90294 2 8.4 2ZM7.5 5.63797C7.09903 5.64081 6.78417 5.64869 6.51993 5.6705C6.12536 5.70306 5.92358 5.76209 5.78282 5.83453C5.44413 6.00885 5.16876 6.287 4.99619 6.62911C4.92447 6.77129 4.86603 6.97511 4.8338 7.37367C4.8007 7.78284 4.8 8.3122 4.8 9.09091V9.27273H19.2V9.09091C19.2 8.3122 19.1993 7.78284 19.1662 7.37367C19.134 6.97511 19.0755 6.77129 19.0038 6.62911C18.8312 6.287 18.5559 6.00885 18.2172 5.83453C18.0764 5.76209 17.8746 5.70306 17.4801 5.6705C17.2158 5.64869 16.901 5.64081 16.5 5.63797V6.54545C16.5 7.04753 16.0971 7.45455 15.6 7.45455C15.1029 7.45455 14.7 7.04753 14.7 6.54545V5.63636H9.3V6.54545C9.3 7.04753 8.89706 7.45455 8.4 7.45455C7.90294 7.45455 7.5 7.04753 7.5 6.54545V5.63797ZM19.2 11.0909H4.8V16.7273C4.8 17.506 4.8007 18.0353 4.8338 18.4445C4.86603 18.8431 4.92447 19.0469 4.99619 19.1891C5.16876 19.5312 5.44413 19.8093 5.78282 19.9836C5.92358 20.0561 6.12536 20.1151 6.51993 20.1477C6.92501 20.1811 7.44908 20.1818 8.22 20.1818H15.78C16.5509 20.1818 17.075 20.1811 17.4801 20.1477C17.8746 20.1151 18.0764 20.0561 18.2172 19.9836C18.5559 19.8093 18.8312 19.5312 19.0038 19.1891C19.0755 19.0469 19.134 18.8431 19.1662 18.4445C19.1993 18.0353 19.2 17.506 19.2 16.7273V11.0909Z"/></symbol><symbol viewBox="0 0 24 24" id="cancel" xmlns="http://www.w3.org/2000/svg"><path fill-rule="evenodd" clip-rule="evenodd" d="M18.364 5.63604C14.8492 2.12132 9.15076 2.12132 5.63604 5.63604C2.12132 9.15076 2.12132 14.8492 5.63604 18.364C9.15076 21.8787 14.8492 21.8787 18.364 18.364C21.8787 14.8492 21.8787 9.15076 18.364 5.63604ZM4.22183 4.22183C8.51759 -0.0739419 15.4824 -0.0739419 19.7782 4.22183C24.0739 8.51759 24.0739 15.4824 19.7782 19.7782C15.4824 24.0739 8.51759 24.0739 4.22183 19.7782C-0.0739419 15.4824 -0.0739419 8.51759 4.22183 4.22183ZM15.5355 8.46447C15.9261 8.85499 15.9261 9.48816 15.5355 9.87868L13.4142 12L15.5355 14.1213C15.9261 14.5118 15.9261 15.145 15.5355 15.5355C15.145 15.9261 14.5118 15.9261 14.1213 15.5355L12 13.4142L9.87868 15.5355C9.48815 15.9261 8.85499 15.9261 8.46447 15.5355C8.07394 15.145 8.07394 14.5118 8.46447 14.1213L10.5858 12L8.46447 9.87868C8.07394 9.48816 8.07394 8.85499 8.46447 8.46447C8.85499 8.07394 9.48816 8.07394 9.87868 8.46447L12 10.5858L14.1213 8.46447C14.5118 8.07394 15.145 8.07394 15.5355 8.46447Z"/></symbol><symbol viewBox="0 0 15 15" id="check" xmlns="http://www.w3.org/2000/svg"><path fill-rule="evenodd" clip-rule="evenodd" d="M13.6799 3.56435L7.31972 13.972L2 9.98217L3.8 7.58218L6.48028 9.59239L11.1201 2L13.6799 3.56435Z"/></symbol><symbol viewBox="0 0 50 50" id="clients" xmlns="http://www.w3.org/2000/svg"><path fill-rule="evenodd" clip-rule="evenodd" d="M19.625 8C14.9997 8 11.25 11.7496 11.25 16.375C11.25 21.0004 14.9997 24.75 19.625 24.75C24.2504 24.75 28 21.0004 28 16.375C28 11.7496 24.2504 8 19.625 8ZM9.25004 16.375C9.25004 10.645 13.8951 6 19.625 6C25.355 6 30 10.645 30 16.375C30 22.105 25.355 26.75 19.625 26.75C13.8951 26.75 9.25004 22.105 9.25004 16.375ZM32.2712 7.52947C32.517 7.03489 33.1172 6.8332 33.6117 7.07899C37.0255 8.77548 39.375 12.2999 39.375 16.375C39.375 20.4501 37.0255 23.9745 33.6117 25.671C33.1172 25.9168 32.517 25.7151 32.2712 25.2205C32.0254 24.726 32.2271 24.1258 32.7217 23.88C35.4817 22.5084 37.375 19.6619 37.375 16.375C37.375 13.0881 35.4817 10.2417 32.7217 8.87001C32.2271 8.62423 32.0254 8.02405 32.2712 7.52947ZM19.625 35.0833C13.9329 35.0833 8.69627 38.0581 4.78637 43.0345C4.44516 43.4688 3.81651 43.5442 3.38223 43.203C2.94796 42.8618 2.87251 42.2331 3.21372 41.7989C7.4142 36.4526 13.1888 33.0833 19.625 33.0833C26.0613 33.0833 31.8359 36.4526 36.0364 41.7989C36.3776 42.2331 36.3021 42.8618 35.8679 43.203C35.4336 43.5442 34.8049 43.4688 34.4637 43.0345C30.5538 38.0581 25.3172 35.0833 19.625 35.0833ZM36.4223 35.2677C36.65 34.7645 37.2425 34.5412 37.7456 34.7689C41.061 36.2691 44.0193 38.7013 46.453 41.7989C46.7942 42.2331 46.7188 42.8618 46.2845 43.203C45.8502 43.5442 45.2216 43.4688 44.8804 43.0345C42.6162 40.1528 39.9035 37.9406 36.9211 36.591C36.4179 36.3634 36.1946 35.7709 36.4223 35.2677Z"/></symbol><symbol viewBox="0 0 24 24" id="cross" xmlns="http://www.w3.org/2000/svg"><path fill-rule="evenodd" clip-rule="evenodd" d="M2.29289 2.29289C2.68342 1.90237 3.31658 1.90237 3.70711 2.29289L12 10.5858L20.2929 2.29289C20.6834 1.90237 21.3166 1.90237 21.7071 2.29289C22.0976 2.68342 22.0976 3.31658 21.7071 3.70711L13.4142 12L21.7071 20.2929C22.0976 20.6834 22.0976 21.3166 21.7071 21.7071C21.3166 22.0976 20.6834 22.0976 20.2929 21.7071L12 13.4142L3.70711 21.7071C3.31658 22.0976 2.68342 22.0976 2.29289 21.7071C1.90237 21.3166 1.90237 20.6834 2.29289 20.2929L10.5858 12L2.29289 3.70711C1.90237 3.31658 1.90237 2.68342 2.29289 2.29289Z"/></symbol><symbol viewBox="0 0 24 24" id="documents" xmlns="http://www.w3.org/2000/svg"><path fill-rule="evenodd" clip-rule="evenodd" d="M8.7587 1H15.2413C16.0463 0.999988 16.7106 0.999977 17.2518 1.04419C17.8139 1.09012 18.3306 1.18868 18.816 1.43597C19.5686 1.81947 20.1805 2.43139 20.564 3.18404C20.8113 3.66937 20.9099 4.18608 20.9558 4.74817C21 5.28936 21 5.95372 21 6.75868V7C21 7.55229 20.5523 8 20 8C19.4477 8 19 7.55229 19 7V6.8C19 5.94342 18.9992 5.36113 18.9624 4.91104C18.9266 4.47262 18.8617 4.24842 18.782 4.09202C18.5903 3.7157 18.2843 3.40973 17.908 3.21799C17.7516 3.1383 17.5274 3.07337 17.089 3.03755C16.6389 3.00078 16.0566 3 15.2 3H8.8C7.94342 3 7.36113 3.00078 6.91104 3.03755C6.47262 3.07337 6.24842 3.1383 6.09202 3.21799C5.7157 3.40973 5.40973 3.7157 5.21799 4.09202C5.1383 4.24842 5.07337 4.47262 5.03755 4.91104C5.00078 5.36113 5 5.94342 5 6.8V17.2C5 18.0566 5.00078 18.6389 5.03755 19.089C5.07337 19.5274 5.1383 19.7516 5.21799 19.908C5.40973 20.2843 5.7157 20.5903 6.09202 20.782C6.24842 20.8617 6.47262 20.9266 6.91104 20.9624C7.36113 20.9992 7.94342 21 8.8 21H12.5C13.0523 21 13.5 21.4477 13.5 22C13.5 22.5523 13.0523 23 12.5 23H8.75868C7.95372 23 7.28936 23 6.74817 22.9558C6.18608 22.9099 5.66937 22.8113 5.18404 22.564C4.43139 22.1805 3.81947 21.5686 3.43597 20.816C3.18868 20.3306 3.09012 19.8139 3.04419 19.2518C2.99998 18.7106 2.99999 18.0463 3 17.2413V6.7587C2.99999 5.95373 2.99998 5.28937 3.04419 4.74817C3.09012 4.18608 3.18868 3.66937 3.43597 3.18404C3.81947 2.43139 4.43139 1.81947 5.18404 1.43597C5.66937 1.18868 6.18608 1.09012 6.74817 1.04419C7.28937 0.999977 7.95373 0.999988 8.7587 1ZM7 7C7 6.44772 7.44772 6 8 6H16C16.5523 6 17 6.44772 17 7C17 7.55229 16.5523 8 16 8H8C7.44772 8 7 7.55229 7 7ZM7 11C7 10.4477 7.44772 10 8 10H12.5C13.0523 10 13.5 10.4477 13.5 11C13.5 11.5523 13.0523 12 12.5 12H8C7.44772 12 7 11.5523 7 11ZM19.5 12C19.2239 12 19 12.2239 19 12.5V18C19 18.5523 18.5523 19 18 19C17.4477 19 17 18.5523 17 18V12.5C17 11.1193 18.1193 10 19.5 10C20.8807 10 22 11.1193 22 12.5V18C22 20.2091 20.2091 22 18 22C15.7909 22 14 20.2091 14 18V14C14 13.4477 14.4477 13 15 13C15.5523 13 16 13.4477 16 14V18C16 19.1046 16.8954 20 18 20C19.1046 20 20 19.1046 20 18V12.5C20 12.2239 19.7761 12 19.5 12ZM7 15C7 14.4477 7.44772 14 8 14H11.5C12.0523 14 12.5 14.4477 12.5 15C12.5 15.5523 12.0523 16 11.5 16H8C7.44772 16 7 15.5523 7 15Z"/></symbol><symbol viewBox="0 0 24 24" id="download" xmlns="http://www.w3.org/2000/svg"><path fill-rule="evenodd" clip-rule="evenodd" d="M12 2C12.5523 2 13 2.44772 13 3V12.5858L16.2929 9.29289C16.6834 8.90237 17.3166 8.90237 17.7071 9.29289C18.0976 9.68342 18.0976 10.3166 17.7071 10.7071L12.7071 15.7071C12.3166 16.0976 11.6834 16.0976 11.2929 15.7071L6.29289 10.7071C5.90237 10.3166 5.90237 9.68342 6.29289 9.29289C6.68342 8.90237 7.31658 8.90237 7.70711 9.29289L11 12.5858V3C11 2.44772 11.4477 2 12 2ZM3 14C3.55229 14 4 14.4477 4 15V16.2C4 17.0566 4.00078 17.6389 4.03755 18.089C4.07337 18.5274 4.1383 18.7516 4.21799 18.908C4.40973 19.2843 4.7157 19.5903 5.09202 19.782C5.24842 19.8617 5.47262 19.9266 5.91104 19.9624C6.36113 19.9992 6.94342 20 7.8 20H16.2C17.0566 20 17.6389 19.9992 18.089 19.9624C18.5274 19.9266 18.7516 19.8617 18.908 19.782C19.2843 19.5903 19.5903 19.2843 19.782 18.908C19.8617 18.7516 19.9266 18.5274 19.9624 18.089C19.9992 17.6389 20 17.0566 20 16.2V15C20 14.4477 20.4477 14 21 14C21.5523 14 22 14.4477 22 15V16.2413C22 17.0463 22 17.7106 21.9558 18.2518C21.9099 18.8139 21.8113 19.3306 21.564 19.816C21.1805 20.5686 20.5686 21.1805 19.816 21.564C19.3306 21.8113 18.8139 21.9099 18.2518 21.9558C17.7106 22 17.0463 22 16.2413 22H7.75868C6.95372 22 6.28936 22 5.74817 21.9558C5.18608 21.9099 4.66937 21.8113 4.18404 21.564C3.43139 21.1805 2.81947 20.5686 2.43597 19.816C2.18868 19.3306 2.09012 18.8139 2.04419 18.2518C1.99998 17.7106 1.99999 17.0463 2 16.2413L2 15C2 14.4477 2.44772 14 3 14Z"/></symbol><symbol viewBox="0 0 24 24" id="drop" xmlns="http://www.w3.org/2000/svg"><path fill-rule="evenodd" clip-rule="evenodd" d="M5.29289 8.29289C5.68342 7.90237 6.31658 7.90237 6.70711 8.29289L12 13.5858L17.2929 8.29289C17.6834 7.90237 18.3166 7.90237 18.7071 8.29289C19.0976 8.68342 19.0976 9.31658 18.7071 9.70711L12.7071 15.7071C12.3166 16.0976 11.6834 16.0976 11.2929 15.7071L5.29289 9.70711C4.90237 9.31658 4.90237 8.68342 5.29289 8.29289Z"/></symbol><symbol viewBox="0 0 50 50" id="employees" xmlns="http://www.w3.org/2000/svg"><path fill-rule="evenodd" clip-rule="evenodd" d="M13.1265 9.41199C12.9024 8.96288 12.3551 8.77974 11.9042 9.00293C8.79134 10.5435 6.64892 13.7439 6.64892 17.4443C6.64892 21.1447 8.79134 24.3452 11.9042 25.8857C12.3551 26.1089 12.9024 25.9258 13.1265 25.4767C13.3507 25.0275 13.1667 24.4825 12.7158 24.2593C10.199 23.0138 8.47261 20.429 8.47261 17.4443C8.47261 14.4596 10.199 11.8748 12.7158 10.6293C13.1667 10.4061 13.3507 9.8611 13.1265 9.41199ZM9.34136 34.6002C9.13374 34.1433 8.59349 33.9405 8.13468 34.1472C5.11161 35.5095 2.41403 37.7181 0.194876 40.5309C-0.116253 40.9252 -0.0474566 41.4961 0.348536 41.8059C0.74453 42.1158 1.31777 42.0473 1.62889 41.6529C3.69344 39.0361 6.16703 37.0273 8.88653 35.8018C9.34534 35.5951 9.54897 35.0571 9.34136 34.6002Z"/><path fill-rule="evenodd" clip-rule="evenodd" d="M25.3421 9.81613C21.1245 9.81613 17.7054 13.221 17.7054 17.4212C17.7054 21.6213 21.1245 25.0263 25.3421 25.0263C29.5597 25.0263 32.9788 21.6213 32.9788 17.4212C32.9788 13.221 29.5597 9.81613 25.3421 9.81613ZM15.8817 17.4212C15.8817 12.218 20.1173 8 25.3421 8C30.5669 8 34.8025 12.218 34.8025 17.4212C34.8025 22.6244 30.5669 26.8424 25.3421 26.8424C20.1173 26.8424 15.8817 22.6244 15.8817 17.4212ZM36.8735 9.38886C37.0976 8.93975 37.6449 8.7566 38.0958 8.97979C41.2087 10.5203 43.3511 13.7208 43.3511 17.4212C43.3511 21.1216 41.2087 24.3221 38.0958 25.8626C37.6449 26.0858 37.0976 25.9026 36.8735 25.4535C36.6493 25.0044 36.8332 24.4594 37.2842 24.2362C39.801 22.9907 41.5274 20.4059 41.5274 17.4212C41.5274 14.4365 39.801 11.8517 37.2842 10.6062C36.8332 10.383 36.6493 9.83797 36.8735 9.38886ZM25.3421 34.4096C20.1517 34.4096 15.3767 37.1109 11.8115 41.6298C11.5004 42.0241 10.9271 42.0926 10.5311 41.7828C10.1351 41.473 10.0663 40.9021 10.3775 40.5077C14.2077 35.653 19.4732 32.5935 25.3421 32.5935C31.211 32.5935 36.4765 35.653 40.3067 40.5077C40.6179 40.9021 40.5491 41.473 40.1531 41.7828C39.7571 42.0926 39.1838 42.0241 38.8727 41.6298C35.3075 37.1109 30.5325 34.4096 25.3421 34.4096ZM40.6586 34.577C40.8663 34.1201 41.4065 33.9173 41.8653 34.1241C44.8884 35.4864 47.586 37.695 49.8051 40.5077C50.1163 40.9021 50.0475 41.473 49.6515 41.7828C49.2555 42.0926 48.6822 42.0241 48.3711 41.6298C46.3066 39.013 43.833 37.0042 41.1135 35.7787C40.6547 35.5719 40.451 35.0339 40.6586 34.577Z"/></symbol><symbol viewBox="0 0 24 24" id="message" xmlns="http://www.w3.org/2000/svg"><path fill-rule="evenodd" clip-rule="evenodd" d="M5.61903 10.1818C5.61903 5.65751 9.29164 2 13.8095 2C18.3274 2 22 5.65751 22 10.1818C22 11.2017 21.8128 12.1799 21.47 13.0827C21.4369 13.1698 21.4177 13.2208 21.4044 13.2583C21.4027 13.2632 21.4012 13.2673 21.4 13.2709C21.4001 13.2721 21.4002 13.2734 21.4004 13.2749C21.4032 13.3049 21.4082 13.3458 21.4177 13.4238L21.7851 16.4219C21.8021 16.5603 21.8214 16.7171 21.8259 16.8537C21.831 17.0049 21.8247 17.2395 21.7126 17.4857C21.5725 17.7932 21.3238 18.0375 21.0146 18.1711C20.7671 18.278 20.5334 18.279 20.3832 18.2704C20.2474 18.2626 20.0917 18.2396 19.9544 18.2194C19.946 18.2181 19.9377 18.2169 19.9294 18.2157L17.0475 17.7912C16.9675 17.7794 16.9254 17.7733 16.8945 17.7696C16.8931 17.7695 16.8917 17.7693 16.8904 17.7692C16.8868 17.7704 16.8826 17.7718 16.8776 17.7736C16.839 17.7871 16.7865 17.8067 16.6968 17.8405C15.7975 18.1789 14.824 18.3636 13.8095 18.3636C13.647 18.3636 13.4856 18.3589 13.3253 18.3495C12.463 20.4847 10.4144 22 8.00002 22C7.34167 22 6.70746 21.8864 6.11619 21.6767C6.01847 21.6421 5.95785 21.6206 5.9134 21.6058C5.90533 21.6031 5.89872 21.601 5.89343 21.5993C5.89192 21.5995 5.89029 21.5997 5.88853 21.5999C5.85749 21.6033 5.81519 21.609 5.73679 21.6198L3.0272 21.9916C2.73401 22.0319 2.43977 21.9255 2.23929 21.7068C2.03881 21.4881 1.95744 21.1847 2.0214 20.8944L2.57452 18.3838C2.59374 18.2966 2.60402 18.2495 2.61063 18.2149C2.611 18.2129 2.61135 18.2111 2.61166 18.2094C2.61002 18.2036 2.60793 18.1965 2.60533 18.1878C2.59043 18.1383 2.56852 18.0707 2.5329 17.9611C2.34138 17.372 2.23811 16.7429 2.23811 16.0909C2.23811 13.7036 3.6253 11.6285 5.63522 10.7C5.62448 10.5285 5.61903 10.3558 5.61903 10.1818ZM7.42862 10.2104C7.61647 10.1915 7.80708 10.1818 8.00002 10.1818C11.2028 10.1818 13.7619 12.8483 13.7619 16.0909C13.7619 16.2437 13.7563 16.3951 13.7451 16.5451C13.7665 16.5453 13.788 16.5454 13.8095 16.5454C14.6042 16.5454 15.3629 16.401 16.062 16.1379C16.0747 16.1331 16.0876 16.1282 16.1008 16.1232C16.2286 16.0749 16.3795 16.0178 16.5173 15.9887C16.6432 15.9621 16.7508 15.9505 16.8794 15.9498C17.0197 15.949 17.1625 15.9703 17.2778 15.9875C17.2888 15.9891 17.2995 15.9907 17.3099 15.9923L19.957 16.3821L19.6218 13.6459C19.6205 13.6357 19.6192 13.6252 19.6179 13.6145C19.6039 13.5023 19.5867 13.3633 19.5899 13.2271C19.5928 13.1022 19.6054 12.9982 19.6323 12.8762C19.6618 12.7427 19.7176 12.5964 19.765 12.4723C19.7699 12.4595 19.7747 12.4469 19.7794 12.4346C20.0448 11.7354 20.1905 10.9766 20.1905 10.1818C20.1905 6.67289 17.3392 3.81818 13.8095 3.81818C10.2798 3.81818 7.42856 6.67289 7.42856 10.1818C7.42856 10.1913 7.42858 10.2009 7.42862 10.2104ZM11.8265 17.1212C11.9086 16.7926 11.9524 16.4475 11.9524 16.0909C11.9524 13.8107 10.1623 12 8.00002 12C5.8377 12 4.04763 13.8107 4.04763 16.0909C4.04763 16.5491 4.1201 16.9878 4.25298 17.3965C4.25825 17.4128 4.26365 17.4293 4.26913 17.446C4.32002 17.6016 4.3777 17.778 4.40086 17.9263C4.4226 18.0654 4.42782 18.1725 4.41972 18.3131C4.41113 18.4624 4.377 18.6159 4.34918 18.7411C4.34648 18.7532 4.34383 18.7652 4.34128 18.7768L4.06877 20.0136L5.49193 19.8183C5.50236 19.8169 5.51306 19.8154 5.524 19.8139C5.63654 19.7983 5.77454 19.7791 5.90691 19.78C6.03224 19.7809 6.12551 19.7904 6.24844 19.8151C6.37882 19.8412 6.53523 19.8969 6.67402 19.9464C6.68905 19.9517 6.70387 19.957 6.71843 19.9622C7.11936 20.1044 7.55009 20.1818 8.00002 20.1818C9.80917 20.1818 11.3577 18.9143 11.8153 17.1648C11.8187 17.1501 11.8224 17.1355 11.8265 17.1212Z"/></symbol><symbol viewBox="0 0 24 24" id="notifications" xmlns="http://www.w3.org/2000/svg"><path fill-rule="evenodd" clip-rule="evenodd" d="M12 3C11.2121 3 10.5735 3.67157 10.5735 4.5C10.5735 4.72108 10.6186 4.93048 10.7 5.11911C11.1261 5.04027 11.5615 5 12 5C12.4385 5 12.8739 5.04027 13.3 5.11911C13.3814 4.93048 13.4265 4.72109 13.4265 4.5C13.4265 3.67157 12.7879 3 12 3ZM15.12 5.72147C15.2548 5.34107 15.3286 4.92938 15.3286 4.5C15.3286 2.567 13.8383 1 12 1C10.1617 1 8.67143 2.567 8.67143 4.5C8.67143 4.92938 8.74522 5.34107 8.88 5.72147C8.3228 5.99625 7.80404 6.34658 7.34231 6.76736C6.08255 7.91537 5.34285 9.50571 5.34285 11.2C5.34285 13.3077 4.84807 14.7999 4.26561 15.8357L4.25591 15.853C3.8814 16.5189 3.5889 17.0391 3.39272 17.4125C3.29465 17.5991 3.20836 17.7721 3.14563 17.9203C3.11452 17.9937 3.0802 18.0819 3.05346 18.1756C3.03352 18.2454 2.98447 18.4265 3.00487 18.6459C3.01607 18.7664 3.04177 19.0057 3.17428 19.25C3.30679 19.4942 3.48961 19.6393 3.58254 19.7108C3.73399 19.8272 3.88553 19.8772 3.96101 19.8991C4.05008 19.9251 4.13664 19.9404 4.20841 19.9505C4.35189 19.9707 4.51898 19.981 4.69312 19.9873C5.04027 20 5.52567 20 6.13729 20H8.31576C8.73805 21.7252 10.2274 23 12 23C13.7726 23 15.2619 21.7252 15.6842 20H17.8627C18.4743 20 18.9597 20 19.3069 19.9873C19.481 19.981 19.6481 19.9707 19.7916 19.9505C19.8634 19.9404 19.9499 19.9251 20.039 19.8991C20.1145 19.8772 20.266 19.8272 20.4175 19.7108C20.5104 19.6393 20.6932 19.4942 20.8257 19.25C20.9582 19.0057 20.9839 18.7664 20.9951 18.6459C21.0155 18.4265 20.9665 18.2454 20.9465 18.1756C20.9198 18.0819 20.8855 17.9937 20.8544 17.9203C20.7916 17.7721 20.7053 17.5991 20.6073 17.4125C20.4111 17.0391 20.1186 16.5189 19.744 15.8528L19.7344 15.8357C19.1519 14.7999 18.6571 13.3077 18.6571 11.2C18.6571 9.50571 17.9175 7.91537 16.6577 6.76736C16.196 6.34658 15.6772 5.99625 15.12 5.72147ZM13.44 7.19808C13.452 7.2018 13.4641 7.20526 13.4763 7.20846C14.2081 7.42057 14.8732 7.78776 15.412 8.27873C16.2924 9.08109 16.7551 10.136 16.7551 11.2C16.7551 13.6559 17.3366 15.5012 18.0971 16.8537C18.3587 17.3189 18.5708 17.696 18.7366 17.998C18.49 18 18.194 18 17.841 18H6.15901C5.80604 18 5.50998 18 5.26339 17.998C5.42923 17.696 5.64125 17.3189 5.90285 16.8537C6.66337 15.5012 7.24489 13.6559 7.24489 11.2C7.24489 10.136 7.70756 9.08109 8.58801 8.27873C9.12677 7.78776 9.79195 7.42057 10.5237 7.20846C10.5359 7.20526 10.5479 7.2018 10.56 7.19809C11.0192 7.06859 11.5041 7 12 7C12.4959 7 12.9808 7.06858 13.44 7.19808ZM10.3524 20C10.6813 20.5978 11.296 21 12 21C12.704 21 13.3187 20.5978 13.6476 20H10.3524Z"/></symbol><symbol viewBox="0 0 24 24" id="return" xmlns="http://www.w3.org/2000/svg"><path d="M11.9998 19.115C10.5926 19.115 9.21694 18.6977 8.04689 17.9159C6.87683 17.1341 5.96488 16.0229 5.42637 14.7228C4.88785 13.4227 4.74695 11.9921 5.02148 10.6119C5.29602 9.23174 5.97365 7.96397 6.9687 6.96892C7.96376 5.97387 9.23153 5.29623 10.6117 5.0217C11.9919 4.74716 13.4225 4.88806 14.7226 5.42658C16.0227 5.9651 17.1339 6.87705 17.9157 8.0471C18.6975 9.21716 19.1148 10.5928 19.1148 12C19.1134 13.8866 18.3634 15.6956 17.0294 17.0296C15.6953 18.3636 13.8864 19.1137 11.9998 19.115ZM11.9998 5.88498C10.7903 5.88498 9.60806 6.24362 8.60246 6.91555C7.59685 7.58747 6.81308 8.5425 6.35025 9.65987C5.88742 10.7772 5.76632 12.0068 6.00227 13.193C6.23822 14.3792 6.82061 15.4687 7.67581 16.3239C8.53101 17.1791 9.6206 17.7615 10.8068 17.9975C11.993 18.2334 13.2225 18.1123 14.3399 17.6495C15.4572 17.1867 16.4123 16.4029 17.0842 15.3973C17.7561 14.3917 18.1148 13.2094 18.1148 12C18.1121 10.379 17.467 8.82516 16.3208 7.67895C15.1746 6.53273 13.6208 5.88763 11.9998 5.88498Z"/><path d="M11.9999 12.5C10.1799 12.5 8.75488 11.465 8.75488 10.14C8.75488 8.815 10.1799 7.785 11.9999 7.785C13.6599 7.785 15.0449 8.685 15.2249 9.88C15.2435 10.0105 15.2098 10.1431 15.1312 10.249C15.0525 10.3548 14.9352 10.4252 14.8049 10.445C14.7399 10.4549 14.6735 10.452 14.6097 10.4362C14.5458 10.4205 14.4857 10.3923 14.4327 10.3533C14.3798 10.3143 14.3351 10.2652 14.3011 10.2088C14.2672 10.1525 14.2447 10.09 14.2349 10.025C14.1349 9.34 13.1299 8.785 11.9999 8.785C10.7849 8.785 9.75488 9.405 9.75488 10.14C9.75488 10.875 10.7849 11.5 11.9999 11.5C12.1325 11.5 12.2597 11.5527 12.3534 11.6465C12.4472 11.7402 12.4999 11.8674 12.4999 12C12.4999 12.1326 12.4472 12.2598 12.3534 12.3536C12.2597 12.4473 12.1325 12.5 11.9999 12.5Z"/><path d="M12 16.215C10.34 16.215 8.95504 15.315 8.77504 14.12C8.75641 13.9895 8.79009 13.8569 8.86875 13.7511C8.94741 13.6452 9.06468 13.5748 9.19504 13.555C9.26005 13.5451 9.32639 13.5481 9.39025 13.5638C9.45411 13.5795 9.51423 13.6077 9.56718 13.6467C9.62013 13.6857 9.66486 13.7348 9.69882 13.7912C9.73277 13.8475 9.75527 13.91 9.76504 13.975C9.86504 14.66 10.87 15.215 12 15.215C13.215 15.215 14.245 14.595 14.245 13.86C14.245 13.125 13.215 12.5 12 12.5C11.8674 12.5 11.7403 12.4473 11.6465 12.3536C11.5527 12.2598 11.5 12.1326 11.5 12C11.5 11.8674 11.5527 11.7402 11.6465 11.6464C11.7403 11.5527 11.8674 11.5 12 11.5C13.82 11.5 15.245 12.535 15.245 13.86C15.245 15.185 13.82 16.215 12 16.215Z"/><path d="M12 17.665C11.8674 17.665 11.7402 17.6123 11.6464 17.5185C11.5527 17.4248 11.5 17.2976 11.5 17.165V6.83499C11.5 6.70238 11.5527 6.57521 11.6464 6.48144C11.7402 6.38767 11.8674 6.33499 12 6.33499C12.1326 6.33499 12.2598 6.38767 12.3536 6.48144C12.4473 6.57521 12.5 6.70238 12.5 6.83499V17.165C12.5 17.2976 12.4473 17.4248 12.3536 17.5185C12.2598 17.6123 12.1326 17.665 12 17.665Z"/><path d="M11.9996 22.025C11.0696 22.0247 10.144 21.8951 9.24964 21.64C9.18349 21.6248 9.12113 21.5962 9.06637 21.5561C9.01161 21.516 8.96559 21.4652 8.93111 21.4067C8.89664 21.3482 8.87443 21.2833 8.86584 21.216C8.85725 21.1487 8.86246 21.0803 8.88115 21.015C8.89984 20.9498 8.93163 20.889 8.97456 20.8364C9.0175 20.7839 9.07069 20.7406 9.1309 20.7092C9.19111 20.6779 9.25707 20.6591 9.32476 20.6541C9.39245 20.6491 9.46046 20.6579 9.52464 20.68C11.5319 21.2526 13.6756 21.1117 15.5907 20.2814C17.5058 19.451 19.0739 17.9824 20.0278 16.1258C20.9818 14.2692 21.2627 12.1393 20.8227 10.0988C20.3827 8.05833 19.249 6.23347 17.6146 4.93498C17.5629 4.89408 17.5198 4.84335 17.4877 4.78571C17.4557 4.72807 17.4354 4.66466 17.4279 4.59913C17.4205 4.5336 17.4261 4.46725 17.4444 4.4039C17.4627 4.34054 17.4934 4.28144 17.5346 4.22998C17.6171 4.12696 17.737 4.06073 17.8682 4.04575C17.9993 4.03076 18.131 4.06823 18.2346 4.14998C19.8786 5.43646 21.0787 7.20513 21.6668 9.20806C22.2549 11.211 22.2014 13.3477 21.5139 15.3187C20.8264 17.2898 19.5393 18.9962 17.8331 20.1989C16.1269 21.4015 14.0871 22.0401 11.9996 22.025Z"/><path d="M10.5549 23.18C10.4777 23.1806 10.4014 23.1633 10.332 23.1295C10.2626 23.0956 10.2019 23.0462 10.1549 22.985L8.98986 21.485C8.94967 21.4329 8.92016 21.3735 8.903 21.31C8.88584 21.2465 8.88137 21.1802 8.88986 21.115C8.89906 21.0499 8.92102 20.9872 8.95448 20.9306C8.98794 20.874 9.03225 20.8245 9.08486 20.785L10.6299 19.6C10.6817 19.5568 10.7418 19.5245 10.8065 19.5051C10.8712 19.4858 10.9391 19.4797 11.0062 19.4873C11.0733 19.4949 11.1382 19.516 11.1969 19.5494C11.2556 19.5827 11.3069 19.6276 11.3478 19.6813C11.3887 19.7351 11.4183 19.7965 11.4348 19.862C11.4513 19.9275 11.4543 19.9956 11.4438 20.0623C11.4332 20.129 11.4093 20.1929 11.3734 20.25C11.3375 20.3072 11.2903 20.3565 11.2349 20.395L10.0899 21.275L10.9499 22.4C11.0053 22.474 11.0392 22.5618 11.0477 22.6539C11.0563 22.7459 11.0391 22.8385 10.9982 22.9214C10.9573 23.0043 10.8942 23.0742 10.8159 23.1234C10.7377 23.1726 10.6473 23.1991 10.5549 23.2V23.18ZM6.07486 19.96C5.96207 19.9594 5.85283 19.9206 5.76486 19.85C3.90645 18.424 2.60763 16.3908 2.09497 14.1051C1.58231 11.8194 1.88834 9.42621 2.95968 7.34306C4.03101 5.25991 5.79966 3.61896 7.95711 2.70646C10.1146 1.79395 12.5239 1.6678 14.7649 2.35001C14.8304 2.36916 14.8914 2.40154 14.9439 2.44516C14.9965 2.48878 15.0396 2.5427 15.0705 2.60361C15.1014 2.66451 15.1195 2.73111 15.1237 2.79928C15.1279 2.86746 15.1181 2.93577 15.0949 3.00001C15.0537 3.1181 14.9697 3.21646 14.8596 3.2757C14.7494 3.33494 14.6211 3.35075 14.4999 3.32001C12.4903 2.73689 10.3406 2.87016 8.41846 3.69701C6.49632 4.52385 4.92122 5.9929 3.96261 7.85283C3.00399 9.71277 2.72145 11.848 3.1633 13.8932C3.60515 15.9385 4.74394 17.7667 6.38486 19.065C6.43659 19.1059 6.47972 19.1566 6.51177 19.2143C6.54381 19.2719 6.56414 19.3353 6.57158 19.4009C6.57901 19.4664 6.57341 19.5327 6.55509 19.5961C6.53678 19.6594 6.50611 19.7186 6.46486 19.77C6.41829 19.8289 6.35905 19.8766 6.29154 19.9095C6.22402 19.9424 6.14996 19.9597 6.07486 19.96Z"/><path d="M13.0697 4.525C12.9925 4.52558 12.9162 4.50828 12.8468 4.47445C12.7774 4.44062 12.7168 4.39117 12.6697 4.33C12.6292 4.27762 12.5996 4.21774 12.5825 4.15382C12.5653 4.08991 12.5611 4.02323 12.5699 3.95765C12.5787 3.89207 12.6005 3.8289 12.6339 3.7718C12.6674 3.7147 12.7118 3.6648 12.7647 3.625L13.9097 2.745L13.0497 1.62C12.969 1.51514 12.9332 1.38261 12.9501 1.25141C12.967 1.12021 13.0351 1.00104 13.1397 0.919996C13.1911 0.878741 13.2502 0.848073 13.3136 0.829758C13.3769 0.811443 13.4433 0.805842 13.5088 0.813278C13.5743 0.820713 13.6378 0.841039 13.6954 0.873085C13.753 0.90513 13.8038 0.948261 13.8447 0.999996L15.0097 2.5C15.0499 2.55206 15.0794 2.61154 15.0965 2.67503C15.1137 2.73852 15.1182 2.80478 15.1097 2.87C15.1005 2.93512 15.0785 2.9978 15.045 3.05442C15.0116 3.11105 14.9673 3.16052 14.9147 3.2L13.3697 4.42C13.2838 4.48669 13.1784 4.52356 13.0697 4.525Z"/></symbol><symbol viewBox="0 0 50 50" id="returns" xmlns="http://www.w3.org/2000/svg"><path d="M8.5987 38.4489C8.33314 38.4489 8.07092 38.3311 7.89536 38.1044C1.24536 29.53 2.02537 17.2689 9.71092 9.5833C13.192 6.10219 17.6098 3.9633 22.4887 3.39552C27.2209 2.84552 32.0643 3.88552 36.1243 6.32552C36.3263 6.44701 36.4719 6.64375 36.529 6.87251C36.5861 7.10127 36.55 7.34334 36.4287 7.54552C36.3072 7.74758 36.1105 7.89315 35.8817 7.95024C35.6529 8.00732 35.4109 7.97126 35.2087 7.84996C27.392 3.1533 17.4243 4.3833 10.9676 10.84C3.91425 17.8933 3.19759 29.1455 9.30092 37.0144C9.37247 37.1066 9.42516 37.212 9.45595 37.3246C9.48675 37.4371 9.49506 37.5547 9.48041 37.6704C9.46576 37.7862 9.42843 37.898 9.37056 37.9993C9.31269 38.1007 9.23541 38.1896 9.14314 38.2611C8.98786 38.383 8.7961 38.4491 8.5987 38.4489Z"/><path d="M31.3509 9.06327C30.9532 9.06327 30.5898 8.79327 30.4887 8.38993C30.4316 8.16126 30.4677 7.91929 30.589 7.71719C30.7102 7.51509 30.9068 7.36941 31.1354 7.31216L34.5898 6.44882L33.7265 2.99438C33.6694 2.76571 33.7055 2.52373 33.8267 2.32164C33.948 2.11954 34.1445 1.97385 34.3732 1.9166C34.6018 1.85953 34.8438 1.89559 35.0459 2.01684C35.248 2.1381 35.3937 2.33464 35.4509 2.56327L36.5298 6.87993C36.5869 7.1086 36.5508 7.35058 36.4296 7.55268C36.3083 7.75477 36.1118 7.90046 35.8832 7.95771L31.5665 9.0366C31.4943 9.05438 31.4221 9.06327 31.3509 9.06327ZM25.0309 46.4922C21.3154 46.4922 17.6176 45.5377 14.3876 43.7166C13.9598 43.4755 13.8087 42.9333 14.0498 42.5055C14.2909 42.0777 14.8332 41.9266 15.2609 42.1677C22.9821 46.521 32.7576 45.1799 39.0332 38.9044C46.0865 31.851 46.8032 20.5988 40.6998 12.7299C40.3987 12.3422 40.4698 11.7833 40.8576 11.4822C41.2454 11.181 41.8043 11.2522 42.1043 11.6399C48.7543 20.2155 47.9743 32.4766 40.2898 40.161C36.8832 43.5677 32.5632 45.6955 27.7976 46.3133C26.8802 46.4327 25.9561 46.4924 25.0309 46.4922Z"/><path d="M16.0177 48.1111C15.8237 48.1109 15.6351 48.0473 15.4806 47.93C15.3261 47.8126 15.2143 47.6479 15.1622 47.4611L13.9655 43.1755C13.9021 42.9484 13.9314 42.7055 14.047 42.5001C14.1627 42.2946 14.3552 42.1435 14.5822 42.0799L18.8677 40.8833C19.3399 40.7511 19.8311 41.0277 19.9633 41.4999C20.0267 41.727 19.9974 41.9699 19.8818 42.1754C19.7661 42.3808 19.5736 42.5319 19.3466 42.5955L15.9166 43.5533L16.8744 46.9833C16.9378 47.2103 16.9085 47.4533 16.7929 47.6587C16.6772 47.8642 16.4847 48.0153 16.2577 48.0788C16.1777 48.1011 16.0977 48.1111 16.0177 48.1111ZM24.9999 37.7788C17.9544 37.7788 12.2222 32.0466 12.2222 24.9999C12.2222 17.9533 17.9544 12.2222 24.9999 12.2222C32.0455 12.2222 37.7777 17.9544 37.7777 24.9999C37.7777 32.0455 32.0455 37.7788 24.9999 37.7788ZM24.9999 13.9999C18.9344 13.9999 13.9999 18.9344 13.9999 24.9999C13.9999 31.0655 18.9344 36.0011 24.9999 36.0011C31.0655 36.0011 35.9999 31.0666 35.9999 24.9999C35.9999 18.9344 31.0655 13.9999 24.9999 13.9999Z"/><path d="M33.0076 34.6766C32.5987 34.6766 32.2309 34.3922 32.1398 33.9766C31.4998 31.0422 28.8531 28.9122 25.8442 28.9122H24.1553C21.1464 28.9122 18.4987 31.0422 17.8598 33.9766C17.7553 34.4566 17.282 34.76 16.802 34.6555C16.322 34.5511 16.0187 34.0777 16.1231 33.5977C16.5164 31.7933 17.5253 30.1533 18.9642 28.98C20.4242 27.79 22.2687 27.1344 24.1553 27.1344H25.8431C27.7309 27.1344 29.5742 27.79 31.0342 28.98C32.4731 30.1533 33.4831 31.7933 33.8765 33.5977C33.9809 34.0777 33.6764 34.5511 33.1976 34.6555C33.1342 34.6688 33.0709 34.6766 33.0076 34.6766Z"/><path d="M24.9997 28.9122C21.9853 28.9122 19.5342 26.46 19.5342 23.4466C19.5342 20.4333 21.9864 17.9811 24.9997 17.9811C28.0131 17.9811 30.4653 20.4333 30.4653 23.4466C30.4653 26.46 28.0142 28.9122 24.9997 28.9122ZM24.9997 19.7577C22.9664 19.7577 21.312 21.4122 21.312 23.4455C21.312 25.4789 22.9664 27.1333 24.9997 27.1333C27.0331 27.1333 28.6875 25.4789 28.6875 23.4455C28.6875 21.4122 27.0331 19.7577 24.9997 19.7577Z"/></symbol><symbol viewBox="0 0 24 24" id="search" xmlns="http://www.w3.org/2000/svg"><path fill-rule="evenodd" clip-rule="evenodd" d="M11.5 4C7.35786 4 4 7.35786 4 11.5C4 15.6421 7.35786 19 11.5 19C13.5131 19 15.341 18.2069 16.6881 16.916C16.7192 16.8729 16.7542 16.8317 16.793 16.7929C16.8318 16.7541 16.873 16.7191 16.9161 16.688C18.2069 15.3409 19 13.5131 19 11.5C19 7.35786 15.6421 4 11.5 4ZM18.8876 17.4733C20.2086 15.8414 21 13.7631 21 11.5C21 6.25329 16.7467 2 11.5 2C6.25329 2 2 6.25329 2 11.5C2 16.7467 6.25329 21 11.5 21C13.7632 21 15.8415 20.2086 17.4734 18.8875L20.2929 21.7071C20.6834 22.0976 21.3166 22.0976 21.7071 21.7071C22.0976 21.3166 22.0976 20.6834 21.7071 20.2929L18.8876 17.4733Z"/></symbol><symbol viewBox="0 0 24 24" id="secure" xmlns="http://www.w3.org/2000/svg"><path fill-rule="evenodd" clip-rule="evenodd" d="M17.2321 4.60175C16.3524 3.67206 14.9262 3.67206 14.0466 4.60175L5.92354 13.1868C4.42814 14.7673 4.42814 17.3297 5.92354 18.9102C7.41895 20.4906 9.84348 20.4906 11.3389 18.9102L19.4619 10.3251C19.8138 9.95324 20.3842 9.95324 20.7361 10.3251C21.088 10.697 21.088 11.2999 20.7361 11.6718L12.6131 20.2568C10.414 22.5811 6.84847 22.5811 4.64934 20.2568C2.45022 17.9326 2.45022 14.1643 4.64934 11.8401L12.7724 3.25507C14.3557 1.58164 16.9229 1.58164 18.5063 3.25507C20.0896 4.92851 20.0896 7.64168 18.5063 9.31511L10.7018 17.5635C9.73417 18.5861 8.16536 18.5861 7.19774 17.5635C6.23013 16.5408 6.23013 14.8828 7.19774 13.8601L14.0466 6.62176C14.3984 6.24989 14.9689 6.24989 15.3208 6.62176C15.6726 6.99363 15.6726 7.59656 15.3208 7.96844L8.47194 15.2068C8.20805 15.4857 8.20805 15.9379 8.47194 16.2168C8.73584 16.4957 9.1637 16.4957 9.42759 16.2168L17.2321 7.96844C18.1117 7.03875 18.1117 5.53143 17.2321 4.60175Z"/></symbol><symbol viewBox="0 0 50 50" id="services" xmlns="http://www.w3.org/2000/svg"><g clip-path="url(#qclip0_2001_4708)"><path fill-rule="evenodd" clip-rule="evenodd" d="M30.2719 4.71236C32.1493 5.19819 33.9495 5.94417 35.6203 6.92863L39.068 5.39569C39.2129 5.33127 39.3739 5.31228 39.5298 5.34121C39.6857 5.37014 39.8291 5.44564 39.9412 5.55775L44.442 10.0585C44.554 10.1705 44.6295 10.3137 44.6585 10.4694C44.6875 10.6251 44.6686 10.7859 44.6045 10.9307L43.0771 14.3788C44.0629 16.0517 44.8092 17.8545 45.2943 19.7346L48.8108 21.088C48.9588 21.145 49.086 21.2454 49.1757 21.376C49.2654 21.5067 49.3135 21.6615 49.3135 21.82V28.1864C49.3135 28.3449 49.2655 28.4997 49.1757 28.6304C49.086 28.761 48.9588 28.8614 48.8108 28.9183L45.2939 30.272C44.8073 32.1492 44.058 33.9469 43.0767 35.6201L44.6045 39.0693C44.6686 39.2141 44.6875 39.3749 44.6585 39.5306C44.6295 39.6863 44.554 39.8295 44.442 39.9415L39.9412 44.4423C39.8293 44.5543 39.686 44.6297 39.5303 44.6587C39.3747 44.6877 39.2138 44.6689 39.0691 44.6047L35.6215 43.0777C33.9524 44.0633 32.1499 44.8082 30.2717 45.2941L28.9181 48.8111C28.8612 48.959 28.7608 49.0863 28.6301 49.176C28.4994 49.2657 28.3446 49.3137 28.1861 49.3137H21.8198C21.6613 49.3137 21.5065 49.2657 21.3758 49.176C21.2451 49.0862 21.1447 48.959 21.0878 48.8111L19.7344 45.2944C17.8515 44.8078 16.0532 44.0584 14.3797 43.077L10.9304 44.6047C10.7857 44.6689 10.6249 44.6877 10.4692 44.6587C10.3135 44.6297 10.1703 44.5543 10.0583 44.4423L5.55751 39.9415C5.44539 39.8294 5.3699 39.6859 5.34096 39.53C5.31203 39.3741 5.33103 39.2131 5.39545 39.0682L6.92819 35.6212C5.9427 33.9524 5.1977 32.1502 4.70682 30.2725L1.18868 28.9183C1.04074 28.8614 0.913518 28.761 0.823787 28.6304C0.734056 28.4997 0.686028 28.3449 0.686035 28.1864V21.82C0.686041 21.6615 0.734075 21.5067 0.823804 21.376C0.913534 21.2454 1.04075 21.145 1.18868 21.088L4.70653 19.7341C5.19543 17.8549 5.94321 16.0528 6.92839 14.3795L5.39545 10.9318C5.33103 10.7869 5.31203 10.6259 5.34096 10.47C5.3699 10.3141 5.44539 10.1707 5.55751 10.0585L10.0583 5.55775C10.1704 5.44564 10.3139 5.37014 10.4698 5.34121C10.6257 5.31228 10.7866 5.33127 10.9315 5.39569C10.9315 5.39569 14.3793 6.92863 14.3792 6.92873C16.0501 5.94407 17.8506 5.19798 19.7282 4.71216L21.088 1.18824C21.145 1.04047 21.2455 0.913434 21.3761 0.823838C21.5067 0.734241 21.6614 0.686285 21.8198 0.686279H28.1861C28.3447 0.686276 28.4996 0.734349 28.6303 0.824154C28.761 0.91396 28.8614 1.04128 28.9183 1.18932L30.2719 4.71236ZM28.9543 5.65638L27.6473 2.25491H22.3578L21.0449 5.65746C20.999 5.77622 20.9249 5.88205 20.829 5.9658C20.7332 6.04954 20.6183 6.10869 20.4945 6.13814C18.4987 6.61223 16.5916 7.40254 14.8454 8.47912C14.7369 8.54599 14.6137 8.58539 14.4865 8.59392C14.3592 8.60244 14.2319 8.57983 14.1153 8.52804L10.7864 7.04795L7.0477 10.7867L8.5278 14.1156C8.57959 14.2321 8.6022 14.3595 8.59367 14.4867C8.58515 14.6139 8.54575 14.7371 8.47888 14.8457C7.40045 16.5958 6.61172 18.5 6.13104 20.5028C6.10137 20.6265 6.0421 20.741 5.95833 20.8366C5.87455 20.9323 5.76879 21.0061 5.65015 21.0518L2.25466 22.3585V27.6478L5.65015 28.9547C5.76871 29.0003 5.8744 29.0741 5.95815 29.1696C6.0419 29.2651 6.10119 29.3795 6.13094 29.503C6.61153 31.4994 7.39996 33.4096 8.47819 35.1533C8.54535 35.262 8.58498 35.3853 8.59362 35.5127C8.60227 35.6401 8.57967 35.7677 8.5278 35.8844L7.0477 39.2133L10.787 42.9527L14.1163 41.4779C14.2324 41.4265 14.3593 41.4041 14.486 41.4125C14.6127 41.4209 14.7354 41.4599 14.8437 41.5263C16.5937 42.5985 18.4977 43.3937 20.5003 43.8681C20.6244 43.8976 20.7395 43.9568 20.8355 44.0407C20.9316 44.1246 21.0057 44.2306 21.0515 44.3496L22.3583 47.7451H27.6476L28.9545 44.3496C29.0002 44.2307 29.0743 44.1247 29.1702 44.0409C29.2662 43.957 29.3811 43.8978 29.5051 43.8683C31.5006 43.394 33.4101 42.6059 35.1531 41.5279C35.2616 41.4609 35.3847 41.4213 35.512 41.4126C35.6392 41.4039 35.7666 41.4263 35.8832 41.4779L39.2125 42.9527L42.9524 39.2127L41.4777 35.8834C41.4263 35.7673 41.4038 35.6405 41.4122 35.5138C41.4207 35.3871 41.4597 35.2644 41.526 35.1561C42.5983 33.406 43.3936 31.5019 43.8681 29.5053C43.8976 29.3813 43.9568 29.2664 44.0406 29.1705C44.1245 29.0745 44.2305 29.0005 44.3494 28.9547L47.7449 27.6478V22.3585L44.3494 21.0518C44.2304 21.0059 44.1243 20.9318 44.0404 20.8358C43.9565 20.7397 43.8973 20.6247 43.8679 20.5006C43.395 18.5026 42.6047 16.5934 41.5271 14.8457C41.4603 14.7373 41.4209 14.6143 41.4123 14.4872C41.4037 14.3602 41.4261 14.233 41.4777 14.1166L42.9524 10.7873L39.2131 7.04795L35.8842 8.52804C35.7677 8.57983 35.6403 8.60244 35.5131 8.59392C35.3859 8.58539 35.2626 8.54599 35.1541 8.47912C33.408 7.40254 31.5009 6.61223 29.5051 6.13814C29.381 6.10866 29.266 6.04938 29.17 5.96543C29.0741 5.88148 29 5.7754 28.9543 5.65638ZM33.7744 11.6733L33.6629 11.2826C33.6059 11.0825 33.6306 10.8681 33.7317 10.6863C33.8328 10.5045 34.0019 10.3703 34.2018 10.3131C34.4018 10.2561 34.6163 10.2809 34.7981 10.3819C34.9799 10.483 35.1141 10.6521 35.1712 10.8521L35.9395 13.5432C35.9721 13.6577 35.9783 13.778 35.9575 13.8952C35.9368 14.0124 35.8896 14.1233 35.8197 14.2195C35.7497 14.3158 35.6588 14.3949 35.5537 14.4508C35.4487 14.5067 35.3323 14.538 35.2134 14.5423L32.4164 14.6428C31.9839 14.6584 31.6201 14.3198 31.6045 13.8873C31.5971 13.6794 31.6725 13.4771 31.8142 13.3248C31.9559 13.1726 32.1522 13.0828 32.3601 13.0752L33.0141 13.0517C31.1308 11.7854 28.9198 10.9479 26.5059 10.6942C18.605 9.86216 11.5259 15.5927 10.6939 23.4937C10.3617 26.6524 11.0785 29.6778 12.5616 32.2265C12.7794 32.6006 12.6523 33.0811 12.2782 33.2988C11.9041 33.5166 11.4236 33.3896 11.2058 33.0154C9.56084 30.1886 8.76545 26.8329 9.13388 23.3296C10.0566 14.567 17.9075 8.21148 26.6702 9.13422C29.2989 9.41049 31.7106 10.3113 33.7744 11.6733ZM16.9852 36.9483C18.8684 38.2141 21.0803 39.0518 23.4935 39.3058C31.3946 40.1378 38.4735 34.4074 39.3055 26.5063C39.6376 23.3494 38.9227 20.3224 37.438 17.7739C37.3334 17.5942 37.3044 17.3802 37.3574 17.1791C37.4105 16.978 37.5412 16.8062 37.7208 16.7014C37.9006 16.5968 38.1145 16.5678 38.3157 16.6208C38.5168 16.6739 38.6886 16.8046 38.7934 16.9842C40.4403 19.8112 41.234 23.1687 40.8655 26.6705C39.9428 35.4331 32.0919 41.7886 23.3293 40.8658C20.7014 40.5891 18.2888 39.6883 16.2251 38.3268L16.3365 38.7175C16.4553 39.1337 16.2139 39.568 15.7976 39.6869C15.3813 39.8057 14.9469 39.5642 14.8282 39.1479L14.06 36.4568C14.0273 36.3423 14.0212 36.222 14.0419 36.1048C14.0627 35.9876 14.1098 35.8767 14.1798 35.7805C14.2497 35.6842 14.3407 35.6051 14.4457 35.5492C14.5507 35.4933 14.6671 35.462 14.786 35.4578L17.5829 35.3572C17.7908 35.3498 17.993 35.4252 18.1453 35.5669C18.2976 35.7086 18.3874 35.9049 18.395 36.1128C18.4023 36.3206 18.3269 36.5229 18.1852 36.6752C18.0435 36.8274 17.8471 36.9172 17.6393 36.9248L16.9852 36.9483ZM25.0014 36.8586C18.4697 36.8586 13.1411 31.5333 13.1411 25.0017C13.1411 18.47 18.4698 13.1414 25.0014 13.1414C31.5331 13.1414 36.8584 18.4699 36.8584 25.0017C36.8584 31.5334 31.5332 36.8586 25.0014 36.8586ZM25.0014 35.29C30.6691 35.29 35.2898 30.6693 35.2898 25.0017C35.2898 19.3339 30.6692 14.71 25.0014 14.71C19.3336 14.71 14.7098 19.3338 14.7098 25.0017C14.7098 30.6694 19.3337 35.29 25.0014 35.29ZM23.5447 24.8643L28.3728 19.9859L28.3742 19.9844C29.3168 19.0369 30.8554 19.0323 31.803 19.9749C32.7502 20.9172 32.7561 22.4502 31.8139 23.4023L31.8135 23.4027C29.6286 25.6075 27.4602 27.8255 25.2653 30.0204C24.3181 30.9675 22.7803 30.9675 21.8331 30.0204L18.1951 26.379C17.2484 25.4323 17.2469 23.8999 18.1937 22.9483L18.1951 22.9469C19.1422 21.9998 20.6801 21.9998 21.6272 22.9469L23.5447 24.8643ZM22.9929 26.531L20.518 24.0561C20.1833 23.7214 19.64 23.7212 19.305 24.0554C18.9703 24.3926 18.9692 24.9347 19.3043 25.2698L22.9423 28.9112C23.2773 29.2461 23.8211 29.2461 24.156 28.9112C26.3492 26.718 28.5158 24.5019 30.699 22.2988C31.0322 21.9622 31.0315 21.4201 30.6966 21.087C30.3623 20.7543 29.8194 20.7562 29.4865 21.0904L24.105 26.5281C24.0323 26.6016 23.9458 26.66 23.8505 26.7C23.7551 26.7399 23.6529 26.7606 23.5495 26.7608C23.4462 26.7611 23.3438 26.7409 23.2483 26.7015C23.1527 26.662 23.0659 26.6041 22.9929 26.531Z"/></g><defs><clipPath id="qclip0_2001_4708"><rect width="50" height="50"/></clipPath></defs></symbol><symbol viewBox="0 0 50 50" id="settings" xmlns="http://www.w3.org/2000/svg"><path d="M41.0549 8.94512C36.7665 4.65664 31.0647 2.29492 25 2.29492C18.9353 2.29492 13.2335 4.65664 8.94512 8.94512C4.65674 13.2336 2.29492 18.9353 2.29492 25C2.29492 31.0647 4.65664 36.7665 8.94512 41.0549C13.2336 45.3433 18.9353 47.7051 25 47.7051C31.0647 47.7051 36.7665 45.3434 41.0549 41.0549C45.3433 36.7664 47.7051 31.0647 47.7051 25C47.7051 18.9353 45.3434 13.2335 41.0549 8.94512ZM25 46.2402C13.2881 46.2402 3.75977 36.7119 3.75977 25C3.75977 13.2881 13.2881 3.75977 25 3.75977C36.7119 3.75977 46.2402 13.2881 46.2402 25C46.2402 36.7119 36.7119 46.2402 25 46.2402ZM25.0004 17.6938C20.9714 17.6938 17.6935 20.9712 17.6935 24.9996C17.6935 29.0286 20.9713 32.3065 25.0004 32.3065C29.0288 32.3065 32.3062 29.0287 32.3062 24.9996C32.3062 20.9712 29.0288 17.6938 25.0004 17.6938ZM25.0004 30.8416C21.7791 30.8416 19.1583 28.2209 19.1583 24.9995C19.1583 21.7788 21.779 19.1586 25.0004 19.1586C28.2211 19.1586 30.8413 21.7788 30.8413 24.9995C30.8413 28.2209 28.2211 30.8416 25.0004 30.8416ZM39.4682 21.1822H36.4785C36.2953 20.6344 36.0732 20.1005 35.8138 19.5844L37.9302 17.469C37.9982 17.401 38.0522 17.3203 38.089 17.2314C38.1258 17.1425 38.1448 17.0473 38.1448 16.9511C38.1448 16.8549 38.1259 16.7596 38.0891 16.6708C38.0523 16.5819 37.9983 16.5011 37.9303 16.4331L33.5668 12.0696C33.4988 12.0016 33.418 11.9476 33.3291 11.9108C33.2403 11.874 33.145 11.8551 33.0488 11.8551C32.9526 11.8551 32.8574 11.8741 32.7685 11.9109C32.6796 11.9477 32.5989 12.0017 32.5309 12.0697L30.4155 14.1861C29.8995 13.9267 29.3655 13.7045 28.8178 13.5214V10.5317C28.8178 10.3375 28.7406 10.1512 28.6033 10.0138C28.4659 9.87648 28.2796 9.79932 28.0854 9.79932H21.9145C21.7202 9.79932 21.5339 9.87648 21.3966 10.0138C21.2592 10.1512 21.182 10.3375 21.182 10.5317V13.5214C20.6345 13.7044 20.1008 13.9266 19.5851 14.186L17.4688 12.0697C17.3314 11.9324 17.1451 11.8552 16.9509 11.8552C16.7566 11.8552 16.5704 11.9324 16.433 12.0697L12.0695 16.4332C12.0015 16.5012 11.9475 16.582 11.9107 16.6709C11.8739 16.7597 11.855 16.855 11.855 16.9512C11.855 17.0474 11.874 17.1426 11.9108 17.2315C11.9476 17.3204 12.0016 17.4011 12.0696 17.4691L14.186 19.5845C13.9266 20.1005 13.7047 20.6345 13.5219 21.1823H10.5316C10.3374 21.1823 10.1511 21.2595 10.0137 21.3968C9.87638 21.5342 9.79922 21.7205 9.79922 21.9147V28.0856C9.79922 28.2799 9.87638 28.4662 10.0137 28.6035C10.1511 28.7409 10.3374 28.8181 10.5316 28.8181H13.5219C13.7046 29.3657 13.9265 29.8994 14.1859 30.415L12.0696 32.5313C12.0016 32.5993 11.9476 32.6801 11.9108 32.7689C11.874 32.8578 11.855 32.953 11.855 33.0492C11.855 33.1454 11.874 33.2406 11.9108 33.3295C11.9476 33.4184 12.0016 33.4991 12.0696 33.5671L16.4331 37.9306C16.5705 38.0679 16.7567 38.1451 16.951 38.1451C17.1452 38.1451 17.3315 38.0679 17.4688 37.9306L19.5852 35.8143C20.1008 36.0737 20.6345 36.2956 21.1821 36.4783V39.4686C21.1821 39.6628 21.2593 39.8491 21.3967 39.9865C21.534 40.1238 21.7203 40.201 21.9146 40.201H28.0854C28.2797 40.201 28.466 40.1238 28.6034 39.9865C28.7407 39.8491 28.8179 39.6628 28.8179 39.4686V36.4783C29.3657 36.2955 29.8997 36.0736 30.4156 35.8142L32.531 37.9305C32.599 37.9985 32.6797 38.0525 32.7686 38.0893C32.8575 38.1261 32.9527 38.1451 33.0489 38.1451H33.049C33.2433 38.1451 33.4296 38.068 33.5669 37.9306L37.9304 33.5671C37.9984 33.4991 38.0524 33.4184 38.0892 33.3295C38.126 33.2406 38.145 33.1454 38.145 33.0492C38.145 32.953 38.126 32.8578 38.0892 32.7689C38.0524 32.6801 37.9984 32.5993 37.9304 32.5313L35.8141 30.415C36.0735 29.8993 36.2956 29.3656 36.4787 28.8181H39.4684C39.6626 28.8181 39.8489 28.7409 39.9863 28.6035C40.1236 28.4662 40.2008 28.2799 40.2008 28.0856V21.9147C40.2007 21.7205 40.1235 21.5342 39.9861 21.3968C39.8488 21.2594 39.6624 21.1823 39.4682 21.1822ZM38.7357 27.3532H35.9383C35.7789 27.3532 35.6238 27.4053 35.4966 27.5014C35.3694 27.5976 35.2771 27.7326 35.2336 27.8859C35.0058 28.6892 34.6838 29.4627 34.2743 30.1904C34.1959 30.3297 34.1652 30.4909 34.187 30.6492C34.2087 30.8076 34.2817 30.9545 34.3947 31.0675L36.3765 33.0492L33.0489 36.3768L31.0684 34.3952C30.9554 34.2822 30.8085 34.2092 30.6502 34.1874C30.4919 34.1656 30.3308 34.1962 30.1915 34.2745C29.4636 34.6838 28.6899 35.0054 27.8863 35.2326C27.7328 35.276 27.5975 35.3683 27.5012 35.4955C27.4049 35.6227 27.3528 35.7779 27.3528 35.9375V38.736H22.6468V35.9375C22.6468 35.7779 22.5947 35.6227 22.4984 35.4955C22.4021 35.3683 22.2669 35.276 22.1133 35.2326C21.3102 35.0057 20.5369 34.6841 19.8097 34.2747C19.6704 34.1963 19.5092 34.1657 19.3509 34.1874C19.1925 34.2092 19.0456 34.2821 18.9326 34.3951L16.9509 36.3769L13.623 33.0492L15.6048 31.0675C15.7178 30.9545 15.7908 30.8076 15.8125 30.6492C15.8342 30.4909 15.8036 30.3297 15.7252 30.1904C15.3158 29.4632 14.9943 28.6899 14.7673 27.8868C14.7239 27.7332 14.6316 27.598 14.5044 27.5017C14.3772 27.4054 14.222 27.3533 14.0624 27.3533H11.2639V22.6473H14.0625C14.2221 22.6473 14.3773 22.5952 14.5045 22.4989C14.6317 22.4026 14.724 22.2673 14.7674 22.1138C14.9946 21.3102 15.3162 20.5364 15.7255 19.8085C15.8038 19.6692 15.8343 19.5081 15.8125 19.3498C15.7907 19.1915 15.7178 19.0446 15.6048 18.9316L13.6232 16.9511L16.9508 13.6235L18.9325 15.6053C19.0455 15.7183 19.1924 15.7912 19.3508 15.813C19.5091 15.8347 19.6703 15.8041 19.8096 15.7257C20.5373 15.3163 21.3108 14.9943 22.1141 14.7664C22.2675 14.7229 22.4025 14.6306 22.4986 14.5034C22.5948 14.3762 22.6468 14.2212 22.6468 14.0617V11.2643H27.3528V14.0617C27.3529 14.2211 27.4049 14.3762 27.501 14.5034C27.5972 14.6306 27.7322 14.7229 27.8855 14.7664C28.6893 14.9945 29.4633 15.3165 30.1916 15.7259C30.3309 15.8041 30.492 15.8347 30.6503 15.8129C30.8086 15.7911 30.9555 15.7182 31.0685 15.6052L33.049 13.6236L36.3765 16.951L34.3949 18.9315C34.2819 19.0445 34.2089 19.1914 34.1872 19.3497C34.1654 19.508 34.1959 19.6691 34.2742 19.8084C34.6836 20.5367 35.0056 21.3108 35.2337 22.1146C35.2772 22.2679 35.3695 22.403 35.4967 22.4991C35.6239 22.5952 35.7789 22.6473 35.9384 22.6473H38.7358V27.3532H38.7357Z"/></symbol><symbol viewBox="0 0 24 24" id="whatsapp" xmlns="http://www.w3.org/2000/svg"><path d="M2 22L3.40069 17.0306C2.49996 15.5021 2.02573 13.7629 2.02573 11.9763C2.02573 6.47537 6.50595 2 12.0129 2C17.5198 2 22 6.47537 22 11.9763C22 17.4773 17.5198 21.9527 12.0129 21.9527C10.297 21.9527 8.61674 21.5139 7.13034 20.6808L2 22ZM7.39262 18.8658L7.69832 19.0523C8.99429 19.8426 10.4863 20.2604 12.0129 20.2604C16.5857 20.2604 20.3058 16.5442 20.3058 11.9763C20.3058 7.40852 16.5857 3.69232 12.0129 3.69232C7.44012 3.69232 3.71988 7.40852 3.71988 11.9763C3.71988 13.5679 4.17272 15.1135 5.02934 16.446L5.23521 16.7662L4.4286 19.628L7.39262 18.8658Z"/><path d="M9.20739 7.33306L8.55935 7.29777C8.3558 7.28668 8.15614 7.35462 8.00228 7.48813C7.68811 7.76065 7.18576 8.28753 7.03147 8.97411C6.80138 9.99783 7.15696 11.2514 8.07727 12.505C8.99757 13.7585 10.7126 15.7642 13.7453 16.6209C14.7226 16.8969 15.4914 16.7108 16.0845 16.3318C16.5543 16.0316 16.8782 15.5498 16.9949 15.0052L17.0983 14.5224C17.1312 14.369 17.0532 14.2133 16.9105 14.1476L14.7204 13.1392C14.5782 13.0737 14.4096 13.1151 14.314 13.2389L13.4541 14.3523C13.3892 14.4364 13.278 14.4698 13.1776 14.4345C12.5888 14.2278 10.6164 13.4027 9.53418 11.3202C9.48724 11.2299 9.49891 11.1203 9.56549 11.0432L10.3872 10.0937C10.4712 9.99671 10.4924 9.86038 10.4419 9.74254L9.49785 7.5362C9.44759 7.41874 9.33496 7.34002 9.20739 7.33306Z"/></symbol></svg>