<svg width="30" height="30" viewBox="0 0 30 30" fill="none" xmlns="http://www.w3.org/2000/svg">
<rect width="30" height="30" rx="15" fill="#3B5A66"/>
<path fill-rule="evenodd" clip-rule="evenodd" d="M15 8.25C11.2721 8.25 8.25 11.2721 8.25 15C8.25 18.7279 11.2721 21.75 15 21.75C18.7279 21.75 21.75 18.7279 21.75 15C21.75 11.2721 18.7279 8.25 15 8.25ZM6.75 15C6.75 10.4437 10.4437 6.75 15 6.75C19.5563 6.75 23.25 10.4437 23.25 15C23.25 19.5563 19.5563 23.25 15 23.25C10.4437 23.25 6.75 19.5563 6.75 15ZM15 11.25C15.4142 11.25 15.75 11.5858 15.75 12V15C15.75 15.4142 15.4142 15.75 15 15.75C14.5858 15.75 14.25 15.4142 14.25 15V12C14.25 11.5858 14.5858 11.25 15 11.25ZM14.25 18C14.25 17.5858 14.5858 17.25 15 17.25H15.0075C15.4217 17.25 15.7575 17.5858 15.7575 18C15.7575 18.4142 15.4217 18.75 15.0075 18.75H15C14.5858 18.75 14.25 18.4142 14.25 18Z" fill="white"/>
</svg>
