<svg width="30" height="30" viewBox="0 0 30 30" fill="none" xmlns="http://www.w3.org/2000/svg">
<rect width="30" height="30" rx="15" fill="#6A6DB8"/>
<path d="M15.0003 20.3363C13.9449 20.3363 12.9132 20.0233 12.0357 19.4369C11.1581 18.8506 10.4742 18.0172 10.0703 17.0421C9.66637 16.067 9.5607 14.9941 9.7666 13.959C9.9725 12.9238 10.4807 11.973 11.227 11.2267C11.9733 10.4804 12.9241 9.97219 13.9593 9.76629C14.9944 9.56039 16.0673 9.66607 17.0424 10.07C18.0175 10.4738 18.8509 11.1578 19.4372 12.0353C20.0236 12.9129 20.3366 13.9446 20.3366 15C20.3356 16.415 19.773 17.7717 18.7725 18.7722C17.772 19.7727 16.4153 20.3353 15.0003 20.3363ZM15.0003 10.4138C14.0932 10.4138 13.2065 10.6827 12.4523 11.1867C11.6981 11.6906 11.1103 12.4069 10.7632 13.2449C10.416 14.083 10.3252 15.0051 10.5022 15.8947C10.6791 16.7844 11.1159 17.6016 11.7573 18.243C12.3987 18.8844 13.2159 19.3212 14.1056 19.4981C14.9952 19.6751 15.9174 19.5843 16.7554 19.2372C17.5934 18.89 18.3097 18.3022 18.8136 17.548C19.3176 16.7938 19.5866 15.9071 19.5866 15C19.5846 13.7843 19.1008 12.6189 18.2411 11.7592C17.3814 10.8996 16.2161 10.4157 15.0003 10.4138Z" fill="white"/>
<path d="M15.0002 15.375C13.6352 15.375 12.5664 14.5988 12.5664 13.605C12.5664 12.6113 13.6352 11.8388 15.0002 11.8388C16.2452 11.8388 17.2839 12.5138 17.4189 13.41C17.4329 13.5079 17.4076 13.6074 17.3486 13.6867C17.2896 13.7661 17.2017 13.8189 17.1039 13.8338C17.0551 13.8412 17.0054 13.839 16.9575 13.8272C16.9096 13.8154 16.8645 13.7942 16.8248 13.765C16.7851 13.7357 16.7515 13.6989 16.7261 13.6566C16.7006 13.6144 16.6837 13.5675 16.6764 13.5188C16.6014 13.005 15.8477 12.5888 15.0002 12.5888C14.0889 12.5888 13.3164 13.0538 13.3164 13.605C13.3164 14.1563 14.0889 14.625 15.0002 14.625C15.0996 14.625 15.195 14.6645 15.2653 14.7348C15.3356 14.8052 15.3752 14.9006 15.3752 15C15.3752 15.0995 15.3356 15.1948 15.2653 15.2652C15.195 15.3355 15.0996 15.375 15.0002 15.375Z" fill="white"/>
<path d="M15.0002 18.1613C13.7552 18.1613 12.7164 17.4862 12.5814 16.59C12.5674 16.4921 12.5927 16.3927 12.6517 16.3133C12.7107 16.2339 12.7986 16.1811 12.8964 16.1663C12.9452 16.1588 12.9949 16.161 13.0428 16.1728C13.0907 16.1846 13.1358 16.2058 13.1755 16.235C13.2152 16.2643 13.2488 16.3011 13.2742 16.3434C13.2997 16.3856 13.3166 16.4325 13.3239 16.4813C13.3989 16.995 14.1527 17.4113 15.0002 17.4113C15.9114 17.4113 16.6839 16.9462 16.6839 16.395C16.6839 15.8437 15.9114 15.375 15.0002 15.375C14.9007 15.375 14.8053 15.3355 14.735 15.2652C14.6647 15.1948 14.6252 15.0995 14.6252 15C14.6252 14.9005 14.6647 14.8052 14.735 14.7348C14.8053 14.6645 14.9007 14.625 15.0002 14.625C16.3652 14.625 17.4339 15.4012 17.4339 16.395C17.4339 17.3887 16.3652 18.1613 15.0002 18.1613Z" fill="white"/>
<path d="M15 19.2488C14.9005 19.2488 14.8052 19.2092 14.7348 19.1389C14.6645 19.0686 14.625 18.9732 14.625 18.8738V11.1263C14.625 11.0268 14.6645 10.9314 14.7348 10.8611C14.8052 10.7908 14.9005 10.7513 15 10.7513C15.0995 10.7513 15.1948 10.7908 15.2652 10.8611C15.3355 10.9314 15.375 11.0268 15.375 11.1263V18.8738C15.375 18.9732 15.3355 19.0686 15.2652 19.1389C15.1948 19.2092 15.0995 19.2488 15 19.2488Z" fill="white"/>
<path d="M15.0003 22.5188C14.3028 22.5186 13.6086 22.4214 12.9378 22.23C12.8882 22.2186 12.8415 22.1972 12.8004 22.1671C12.7593 22.137 12.7248 22.0989 12.6989 22.055C12.6731 22.0112 12.6564 21.9625 12.65 21.912C12.6435 21.8615 12.6475 21.8102 12.6615 21.7613C12.6755 21.7124 12.6993 21.6668 12.7315 21.6274C12.7637 21.5879 12.8036 21.5555 12.8488 21.532C12.8939 21.5084 12.9434 21.4944 12.9942 21.4906C13.0449 21.4868 13.096 21.4934 13.1441 21.51C14.6496 21.9395 16.2573 21.8338 17.6937 21.211C19.13 20.5883 20.306 19.4868 21.0215 18.0944C21.737 16.7019 21.9476 15.1045 21.6176 13.5741C21.2876 12.0438 20.4373 10.6751 19.2116 9.70126C19.1728 9.67058 19.1404 9.63254 19.1164 9.58931C19.0924 9.54608 19.0771 9.49852 19.0716 9.44937C19.066 9.40023 19.0702 9.35046 19.0839 9.30295C19.0976 9.25543 19.1206 9.2111 19.1516 9.17251C19.2135 9.09524 19.3034 9.04557 19.4017 9.03433C19.5001 9.02309 19.5989 9.05119 19.6766 9.11251C20.9095 10.0774 21.8096 11.4039 22.2507 12.9061C22.6918 14.4083 22.6517 16.0108 22.136 17.4891C21.6204 18.9673 20.6551 20.2472 19.3754 21.1492C18.0958 22.0512 16.5659 22.5301 15.0003 22.5188Z" fill="white"/>
<path d="M13.9164 23.385C13.8585 23.3854 13.8013 23.3725 13.7492 23.3471C13.6972 23.3217 13.6517 23.2846 13.6164 23.2387L12.7426 22.1137C12.7125 22.0747 12.6904 22.0301 12.6775 21.9825C12.6646 21.9349 12.6613 21.8852 12.6676 21.8362C12.6745 21.7874 12.691 21.7404 12.7161 21.6979C12.7412 21.6555 12.7744 21.6184 12.8139 21.5887L13.9726 20.7C14.0115 20.6676 14.0566 20.6434 14.1051 20.6289C14.1536 20.6143 14.2046 20.6098 14.2549 20.6155C14.3052 20.6212 14.3539 20.637 14.3979 20.662C14.4419 20.687 14.4804 20.7207 14.5111 20.761C14.5418 20.8013 14.564 20.8474 14.5763 20.8965C14.5887 20.9456 14.591 20.9967 14.5831 21.0467C14.5752 21.0967 14.5572 21.1446 14.5303 21.1875C14.5033 21.2304 14.468 21.2674 14.4264 21.2962L13.5676 21.9562L14.2126 22.8C14.2542 22.8555 14.2796 22.9214 14.286 22.9904C14.2925 23.0594 14.2796 23.1289 14.2489 23.191C14.2182 23.2532 14.1709 23.3056 14.1122 23.3425C14.0535 23.3794 13.9857 23.3993 13.9164 23.4V23.385ZM10.5564 20.97C10.4718 20.9695 10.3899 20.9404 10.3239 20.8875C8.93008 19.818 7.95597 18.2931 7.57147 16.5788C7.18698 14.8645 7.4165 13.0696 8.22 11.5073C9.0235 9.94492 10.35 8.71422 11.9681 8.02984C13.5862 7.34546 15.3932 7.25084 17.0739 7.7625C17.1231 7.77686 17.1688 7.80115 17.2082 7.83386C17.2476 7.86657 17.2799 7.90702 17.3031 7.9527C17.3263 7.99838 17.3399 8.04832 17.343 8.09946C17.3462 8.15059 17.3388 8.20182 17.3214 8.25C17.2905 8.33856 17.2275 8.41234 17.1449 8.45677C17.0623 8.5012 16.9661 8.51305 16.8751 8.49C15.368 8.05266 13.7557 8.15261 12.3141 8.77275C10.8725 9.39288 9.69116 10.4947 8.9722 11.8896C8.25324 13.2846 8.04133 14.886 8.37272 16.4199C8.7041 17.9539 9.5582 19.325 10.7889 20.2987C10.8277 20.3294 10.86 20.3675 10.8841 20.4107C10.9081 20.4539 10.9233 20.5015 10.9289 20.5506C10.9345 20.5998 10.9303 20.6495 10.9166 20.6971C10.9028 20.7446 10.8798 20.7889 10.8489 20.8275C10.814 20.8717 10.7695 20.9075 10.7189 20.9321C10.6683 20.9568 10.6127 20.9697 10.5564 20.97Z" fill="white"/>
<path d="M15.8025 9.39375C15.7446 9.39419 15.6874 9.38122 15.6353 9.35584C15.5833 9.33047 15.5378 9.29339 15.5025 9.2475C15.4722 9.20822 15.4499 9.16331 15.4371 9.11538C15.4242 9.06744 15.421 9.01743 15.4277 8.96825C15.4343 8.91906 15.4506 8.87169 15.4757 8.82886C15.5008 8.78603 15.5341 8.74861 15.5737 8.71875L16.4325 8.05875L15.7875 7.215C15.727 7.13636 15.7002 7.03696 15.7128 6.93856C15.7255 6.84016 15.7766 6.75079 15.855 6.69C15.8936 6.65906 15.9379 6.63606 15.9854 6.62233C16.0329 6.60859 16.0827 6.60439 16.1319 6.60997C16.181 6.61554 16.2286 6.63079 16.2718 6.65482C16.315 6.67886 16.3531 6.7112 16.3837 6.75L17.2575 7.875C17.2876 7.91405 17.3098 7.95866 17.3226 8.00628C17.3355 8.0539 17.3389 8.10359 17.3325 8.1525C17.3256 8.20135 17.3091 8.24836 17.284 8.29083C17.2589 8.3333 17.2257 8.3704 17.1862 8.4L16.0275 9.315C15.9631 9.36503 15.8841 9.39268 15.8025 9.39375Z" fill="white"/>
</svg>
