<svg width="30" height="30" viewBox="0 0 30 30" fill="none" xmlns="http://www.w3.org/2000/svg">
<rect width="30" height="30" rx="15" fill="#6AA0B8"/>
<path fill-rule="evenodd" clip-rule="evenodd" d="M7.40447 15C7.40447 10.5817 11.1195 7 15.7022 7C20.285 7 24 10.5817 24 15C24 19.4183 20.285 23 15.7022 23C14.6527 23 13.6467 22.8117 12.72 22.4675C12.6405 22.438 12.5945 22.421 12.5606 22.4092C12.5564 22.4078 12.5528 22.4065 12.5498 22.4055C12.5487 22.4056 12.5475 22.4057 12.5462 22.4058C12.5186 22.4078 12.4809 22.4115 12.4088 22.4187L7.93584 22.8645C7.92601 22.8655 7.91614 22.8664 7.90625 22.8674C7.71917 22.8861 7.524 22.9056 7.36076 22.9075C7.19852 22.9093 6.9061 22.9004 6.62572 22.7355C6.29705 22.5422 6.0732 22.2194 6.01361 21.8527C5.96278 21.5398 6.06609 21.276 6.12988 21.1321C6.19405 20.9874 6.28735 20.821 6.37678 20.6615L7.8196 18.0867C7.88202 17.9753 7.91538 17.9154 7.93783 17.8708C7.93901 17.8684 7.94011 17.8662 7.94111 17.8642C7.93943 17.8583 7.93739 17.8514 7.93492 17.8434C7.91601 17.7817 7.88692 17.698 7.83748 17.5566C7.55644 16.7528 7.40447 15.8926 7.40447 15ZM15.7022 8.68421C12.0843 8.68421 9.15137 11.5119 9.15137 15C9.15137 15.7074 9.27165 16.3859 9.49287 17.0187C9.4999 17.0388 9.50715 17.0593 9.51454 17.0803C9.58542 17.2811 9.66867 17.5171 9.68619 17.7306C9.70216 17.9251 9.6876 18.0896 9.63767 18.2788C9.58306 18.4857 9.47207 18.6824 9.38205 18.842C9.37333 18.8574 9.3648 18.8725 9.35654 18.8873L8.08498 21.1564L12.2292 20.7434C12.2386 20.7425 12.2482 20.7415 12.2581 20.7405C12.362 20.73 12.4909 20.7169 12.6173 20.7216C12.7328 20.7259 12.8302 20.7384 12.9428 20.7634C13.0665 20.7909 13.2007 20.841 13.3139 20.8832C13.3255 20.8875 13.3369 20.8918 13.348 20.8959C14.0775 21.1669 14.8708 21.3158 15.7022 21.3158C19.3202 21.3158 22.2531 18.4881 22.2531 15C22.2531 11.5119 19.3202 8.68421 15.7022 8.68421Z" fill="white"/>
</svg>
