<svg width="30" height="30" viewBox="0 0 30 30" fill="none" xmlns="http://www.w3.org/2000/svg">
<rect width="30" height="30" rx="15" fill="#6A6DB8"/>
<path fill-rule="evenodd" clip-rule="evenodd" d="M15 8.25C11.2721 8.25 8.25 11.2721 8.25 15C8.25 18.7279 11.2721 21.75 15 21.75C18.7279 21.75 21.75 18.7279 21.75 15C21.75 11.2721 18.7279 8.25 15 8.25ZM6.75 15C6.75 10.4437 10.4437 6.75 15 6.75C19.5563 6.75 23.25 10.4437 23.25 15C23.25 19.5563 19.5563 23.25 15 23.25C10.4437 23.25 6.75 19.5563 6.75 15ZM15 9.75C15.4142 9.75 15.75 10.0858 15.75 10.5V14.5365L18.3354 15.8292C18.7059 16.0144 18.8561 16.4649 18.6708 16.8354C18.4856 17.2059 18.0351 17.3561 17.6646 17.1708L14.6646 15.6708C14.4105 15.5438 14.25 15.2841 14.25 15V10.5C14.25 10.0858 14.5858 9.75 15 9.75Z" fill="white"/>
</svg>
