<svg width="30" height="30" viewBox="0 0 30 30" fill="none" xmlns="http://www.w3.org/2000/svg">
<rect width="30" height="30" rx="15" fill="#A46AB8"/>
<path fill-rule="evenodd" clip-rule="evenodd" d="M15 8.25C11.2721 8.25 8.25 11.2721 8.25 15C8.25 18.7279 11.2721 21.75 15 21.75C18.7279 21.75 21.75 18.7279 21.75 15C21.75 11.2721 18.7279 8.25 15 8.25ZM6.75 15C6.75 10.4437 10.4437 6.75 15 6.75C19.5563 6.75 23.25 10.4437 23.25 15C23.25 19.5563 19.5563 23.25 15 23.25C10.4437 23.25 6.75 19.5563 6.75 15ZM15.1936 12.0182C14.8444 11.9584 14.4854 12.024 14.18 12.2034C13.8746 12.3829 13.6426 12.6647 13.525 12.9989C13.3875 13.3896 12.9594 13.595 12.5686 13.4575C12.1779 13.32 11.9725 12.8919 12.11 12.5011C12.3451 11.8328 12.8092 11.2692 13.42 10.9103C14.0308 10.5513 14.7489 10.4201 15.4472 10.5398C16.1455 10.6596 16.7788 11.0226 17.2351 11.5646C17.6912 12.1065 17.941 12.7924 17.94 13.5007C17.9397 14.6485 17.0887 15.4064 16.481 15.8115C16.1543 16.0294 15.8329 16.1895 15.5962 16.2947C15.4767 16.3478 15.3762 16.3881 15.3037 16.4157C15.2674 16.4295 15.2379 16.4403 15.2165 16.4479L15.1905 16.457L15.1822 16.4598L15.1793 16.4608L15.1781 16.4612C15.1779 16.4613 15.1772 16.4615 14.94 15.75L15.1772 16.4615C14.7842 16.5925 14.3595 16.3801 14.2285 15.9872C14.0975 15.5943 14.3097 15.1698 14.7024 15.0386L14.714 15.0345C14.7255 15.0304 14.7445 15.0236 14.7697 15.014C14.8203 14.9947 14.8955 14.9647 14.987 14.924C15.1721 14.8417 15.4132 14.7206 15.649 14.5635C16.1662 14.2187 16.44 13.8519 16.44 13.5V13.4989C16.4405 13.1446 16.3157 12.8016 16.0875 12.5306C15.8594 12.2596 15.5427 12.0781 15.1936 12.0182ZM14.25 18.75C14.25 18.3358 14.5858 18 15 18H15.0075C15.4217 18 15.7575 18.3358 15.7575 18.75C15.7575 19.1642 15.4217 19.5 15.0075 19.5H15C14.5858 19.5 14.25 19.1642 14.25 18.75Z" fill="white"/>
</svg>
