<svg width="30" height="30" viewBox="0 0 30 30" fill="none" xmlns="http://www.w3.org/2000/svg">
<rect width="30" height="30" rx="15" fill="#6BB86A"/>
<path d="M14.4695 22.5V7.5H15.5994V22.5H14.4695ZM18.0039 12.1523C17.9304 11.5977 17.6273 11.168 17.0945 10.8633C16.5617 10.5547 15.8911 10.4004 15.0827 10.4004C14.5039 10.4004 14.0033 10.4785 13.5807 10.6348C13.1581 10.7871 12.8297 10.998 12.5955 11.2676C12.3658 11.5332 12.251 11.8359 12.251 12.1758C12.251 12.4609 12.3291 12.707 12.4852 12.9141C12.646 13.1211 12.855 13.2949 13.1122 13.4355C13.374 13.5723 13.6542 13.6875 13.9528 13.7813C14.2513 13.8711 14.5384 13.9453 14.814 14.0039L16.1919 14.3086C16.6421 14.4023 17.1037 14.5293 17.5768 14.6895C18.0499 14.8496 18.4885 15.0605 18.8927 15.3223C19.2969 15.584 19.623 15.9082 19.8711 16.2949C20.1237 16.6816 20.25 17.1445 20.25 17.6836C20.25 18.3633 20.0433 18.9668 19.6299 19.4941C19.2211 20.0215 18.6263 20.4375 17.8455 20.7422C17.0692 21.0469 16.1299 21.1992 15.0276 21.1992C13.9711 21.1992 13.0571 21.0566 12.2854 20.7715C11.5138 20.4863 10.9098 20.082 10.4734 19.5586C10.0371 19.0312 9.79593 18.4062 9.75 17.6836H11.8858C11.9272 18.1172 12.0925 18.4785 12.3819 18.7676C12.6759 19.0527 13.0502 19.2656 13.5049 19.4062C13.9642 19.543 14.4672 19.6113 15.0138 19.6113C15.6155 19.6113 16.1506 19.5312 16.6191 19.3711C17.0922 19.207 17.4642 18.9805 17.7352 18.6914C18.0062 18.3984 18.1417 18.0566 18.1417 17.666C18.1417 17.3105 18.0223 17.0195 17.7835 16.793C17.5492 16.5664 17.23 16.3789 16.8258 16.2305C16.4262 16.082 15.9738 15.9512 15.4685 15.8379L13.8012 15.4512C12.6713 15.1895 11.7756 14.8047 11.1142 14.2969C10.4573 13.7891 10.1289 13.1172 10.1289 12.2812C10.1289 11.5898 10.3494 10.9863 10.7904 10.4707C11.2313 9.95508 11.8284 9.55469 12.5817 9.26953C13.335 8.98047 14.1847 8.83594 15.1309 8.83594C16.0863 8.83594 16.9291 8.97852 17.6594 9.26367C18.3944 9.54883 18.9731 9.94141 19.3957 10.4414C19.8182 10.9375 20.0387 11.5078 20.0571 12.1523H18.0039Z" fill="white"/>
</svg>
